<svg xmlns="http://www.w3.org/2000/svg" xmlns:xlink="http://www.w3.org/1999/xlink" width="740" height="1602" viewBox="0 0 740 1602">
  <defs>
    <linearGradient id="linear-gradient" x1="0.843" y1="0.909" x2="0.077" y2="-0.005" gradientUnits="objectBoundingBox">
      <stop offset="0" stop-color="#333"/>
      <stop offset="1"/>
    </linearGradient>
    <clipPath id="clip-Artboard_1">
      <rect width="740" height="1602"/>
    </clipPath>
  </defs>
  <g id="Artboard_1" data-name="Artboard 1" clip-path="url(#clip-Artboard_1)">
    <rect width="740" height="1602" fill="#fff"/>
    <g id="Layer_3" data-name="Layer 3">
      <rect id="Rectángulo_79" data-name="Rectángulo 79" width="740" height="1602" transform="translate(0 0)" fill="url(#linear-gradient)"/>
    </g>
    <g id="design">
      <g id="Grupo_97" data-name="Grupo 97">
        <path id="Trazado_180" data-name="Trazado 180" d="M159.8,807.1V761.335a2.163,2.163,0,0,1,2.25-2.251h8.956s11.348.541,11.348,9.958c0,0,.231,8.8-8.029,10.731-.62.162-1.389.308-1.389.308-2.7,0-2.547,1.931-2.547,1.931v7.875s-.154,1.928,2.549,1.928a22.349,22.349,0,0,0,16.9-7.333s9.032-7.72,5.019-21.77c0,0-4.091-14.956-20.3-14.956H149.694c-1.944,0-3.519.562-3.519,2.506v59.96a3.518,3.518,0,0,0,3.519,3.517H156.1a3.831,3.831,0,0,0,3.7-3.7V807.1" fill="#fff"/>
        <path id="Trazado_181" data-name="Trazado 181" d="M323.612,813.739h9.614V751.285a3.513,3.513,0,0,0-3.521-3.5H323.3a3.828,3.828,0,0,0-3.7,3.683v40.279l-32.761-42.165a6.636,6.636,0,0,0-4.321-1.874l-5.85-.019h-4.826v62.551a3.51,3.51,0,0,0,3.519,3.5h6.409a3.827,3.827,0,0,0,3.7-3.684V769.437l31.968,41.533s2.085,2.769,3.32,2.769Z" fill="#fff"/>
        <path id="Trazado_182" data-name="Trazado 182" d="M377.126,807.1V753.576l3.307,5.087A3.189,3.189,0,0,0,382.491,760l8.639.009h3.748c1.94,0,2.893-.806,2.893-2.749l.04-2.848v-3.745c0-1.943-.806-2.9-2.748-2.9H345.618c-1.944,0-2.75.952-2.75,2.9v3.745l.042,2.848c0,1.943.952,2.749,2.895,2.749h17.747v28.357L363.5,796.6v13.621a3.518,3.518,0,0,0,3.519,3.517h6.408a3.831,3.831,0,0,0,3.7-3.7V807.1" fill="#fff"/>
        <path id="Trazado_183" data-name="Trazado 183" d="M205.479,754.311v-2.895a3.778,3.778,0,0,1,3.654-3.635h6.325a3.466,3.466,0,0,1,3.473,3.459v13.393l-.041,7.257v15.03a14.935,14.935,0,0,0,29.869,0v-35.5a3.775,3.775,0,0,1,3.651-3.635h6.326a3.464,3.464,0,0,1,3.471,3.459v13.393l-.039,14.57v7.842c0,14.772-12.69,26.747-28.344,26.747s-28.345-11.975-28.345-26.747V754.311" fill="#fff"/>
        <path id="Trazado_184" data-name="Trazado 184" d="M482.517,761.824v30.4H468.94V747.8h29.4c18.624,0,33.855,15.325,33.855,32.7a33.591,33.591,0,0,1-33.62,33.176l-22.955.074H472.69c-1.941,0-3.75-2.014-3.75-4.241v-4.258c0-1.951,2.072-3.712,4.282-3.712h2.89l21.242-.077a21.137,21.137,0,0,0,21.158-20.875c0-10.934-9.582-20.578-21.3-20.578H482.517Z" fill="#fff"/>
        <path id="Trazado_185" data-name="Trazado 185" d="M426.28,747.759H421.9a2.434,2.434,0,0,0-2.407,1.759l-.523,1.548-21.147,60.817s-.73,1.758.217,1.9h11.9a2.891,2.891,0,0,0,2.042-1.976l2.629-7.393a6.243,6.243,0,0,1,2.2-2.705L427,791.955h-8.337l8.957-26.848.844-2.554,1.782,5.292,7.918,24.11,4.058,12.463,2.626,7.393a2.9,2.9,0,0,0,2.044,1.976h11.892c.952-.146.222-1.9.222-1.9l-21.15-60.817-.52-1.548a2.435,2.435,0,0,0-2.409-1.759H426.28Z" fill="#fff"/>
        <path id="Trazado_186" data-name="Trazado 186" d="M560.833,747.759h-4.378a2.433,2.433,0,0,0-2.407,1.759l-.521,1.548-21.148,60.817s-.732,1.758.218,1.9h11.892a2.9,2.9,0,0,0,2.045-1.976l2.626-7.393a6.233,6.233,0,0,1,2.206-2.705l10.189-9.758h-8.338l8.956-26.848.844-2.554,1.78,5.292,7.922,24.11,4.056,12.463,2.628,7.393a2.891,2.891,0,0,0,2.042,1.976h11.894c.948-.146.218-1.9.218-1.9l-21.145-60.817-.524-1.548a2.436,2.436,0,0,0-2.41-1.759h-8.645Z" fill="#fff"/>
        <path id="Trazado_187" data-name="Trazado 187" d="M381.808,839.933h-4.176a.318.318,0,0,0-.29.185,4.539,4.539,0,0,1-4.321,2.741,4.687,4.687,0,0,1-4.735-4.951,5.276,5.276,0,0,1,1.3-3.574,4.515,4.515,0,0,1,3.3-1.379l.127,0a4.483,4.483,0,0,1,4.317,2.885.31.31,0,0,0,.294.2h4.176a.312.312,0,0,0,.3-.386,9.335,9.335,0,1,0,0,4.667.315.315,0,0,0-.3-.389" fill="#fff"/>
        <path id="Trazado_188" data-name="Trazado 188" d="M431.069,837.1c0-3.49-.294-5.036-1.959-6.763a7.011,7.011,0,0,0-9.35-.042,6.781,6.781,0,0,0-1.015,1.228,7.018,7.018,0,0,0-.814-1.15,5.8,5.8,0,0,0-4.438-1.843,6.134,6.134,0,0,0-4.665,2v-.295c0-.009,0-.018,0-.028v-.06l0-.019c-.033-.443-.293-1.075-1.529-1.075h-.155l-.013,0H406.06l-.013,0h-.158c-.014,0-.027,0-.041,0h-.037c-.01,0-.013,0-.016,0-1.242.038-1.441.746-1.441,1.174v2.652a.177.177,0,0,0,.01.038v10.017l0,.015v2.652c0,.439.2,1.182,1.531,1.182h.036l.008,0h1.6l.009,0c1.274,0,1.505-.678,1.522-1.122,0-.013.01-.022.01-.034v-8.41a5.792,5.792,0,0,1,.612-2.8,2.838,2.838,0,0,1,2.645-1.431,2.707,2.707,0,0,1,2.529,1.416,5.94,5.94,0,0,1,.5,2.694v8.436l0,.015v.058c0,.437.2,1.165,1.5,1.178a.1.1,0,0,0,.031.006h1.611l.012,0h.025c1.336,0,1.535-.743,1.535-1.182v-2.652c0-.008-.006-.015-.006-.023V837.1a5.2,5.2,0,0,1,.553-2.712,2.917,2.917,0,0,1,2.685-1.4,2.443,2.443,0,0,1,2.416,1.26,5.53,5.53,0,0,1,.634,3.005v8.354c0,.439.2,1.182,1.535,1.182h.051l.007,0h1.614c.005,0,.01-.006.021-.006,1.286-.017,1.484-.744,1.484-1.178v-2.652l0-.008Z" fill="#fff"/>
        <path id="Trazado_189" data-name="Trazado 189" d="M458.21,823.106h-4.083a.312.312,0,0,0-.312.315v23.055a.313.313,0,0,0,.312.317h4.083a.315.315,0,0,0,.315-.317V823.421a.314.314,0,0,0-.315-.315" fill="#fff"/>
        <path id="Trazado_190" data-name="Trazado 190" d="M400.942,830.146c0-.007-.006-.012-.006-.02-.034-.435-.292-1.046-1.467-1.069h-.019c-.012,0-.023,0-.041,0h-.152l-.017,0h-1.311c-.009,0-.014,0-.019,0h-.153c-.015,0-.027,0-.042,0h-.048c-.007,0-.011,0-.017,0-1.228.041-1.427.747-1.427,1.173v2.653a.155.155,0,0,0,.008.036v5.89c0,2.685-1.217,4.045-3.612,4.045l-.065,0c-2.292,0-3.357-1.327-3.357-4.175v-8.457a.085.085,0,0,0-.005-.023c-.01-.437-.225-1.125-1.471-1.149h-.02c-.016,0-.027,0-.042,0h-.152c-.006,0-.011,0-.015,0h-1.3l-.014,0h-.155c-1.324,0-1.528.731-1.532,1.172,0,.01-.006.014-.006.024v9.467c0,6.584,4.373,7.593,6.979,7.609h.1a5.965,5.965,0,0,0,4.915-2.077v.4c0,.009.009.015.009.024.015.445.255,1.117,1.526,1.117h.152s0,0,.01,0h1.234a.047.047,0,0,0,.022-.008c1.252-.012,1.485-.677,1.5-1.118,0-.013.01-.023.01-.034V830.146Z" fill="#fff"/>
        <path id="Trazado_191" data-name="Trazado 191" d="M450.39,830.146c0-.007-.005-.012-.007-.02-.033-.435-.289-1.046-1.463-1.069H448.9c-.017,0-.026,0-.042,0H448.7l-.015,0h-1.313c-.007,0-.01,0-.015,0H447.2c-.016,0-.027,0-.043,0h-.046c-.008,0-.01,0-.016,0-1.232.041-1.427.747-1.427,1.173v2.653c0,.013.005.023.005.036v5.89c0,2.685-1.216,4.045-3.607,4.045l-.07,0c-2.292,0-3.357-1.327-3.357-4.175v-8.457c0-.011-.005-.018-.005-.031-.009-.435-.228-1.117-1.472-1.141h-.02c-.013,0-.026,0-.04,0h-.153l-.013,0h-1.3c-.009,0-.011,0-.015,0h-.157c-1.323,0-1.53.731-1.532,1.172,0,.01,0,.014,0,.024v9.467c0,6.584,4.371,7.593,6.977,7.609h.1a5.964,5.964,0,0,0,4.917-2.077v.4c0,.006.008.014.008.021.017.443.25,1.12,1.53,1.12h.148l.008,0h1.239a.089.089,0,0,0,.023-.008c1.247-.012,1.482-.677,1.5-1.118,0-.013.012-.023.012-.034V830.146Z" fill="#fff"/>
        <path id="Trazado_192" data-name="Trazado 192" d="M479.546,830.1v0c-.031-.414-.28-.978-1.334-1.031a.2.2,0,0,0-.041-.009h-.927c-1.244.026-1.44.729-1.44,1.157v.493a8.123,8.123,0,0,0-2.247-1.439,8.553,8.553,0,0,0-3.355-.645,9.312,9.312,0,0,0-3.613.668,8.847,8.847,0,0,0-2.929,2.069,9.091,9.091,0,0,0-1.882,2.949,9.635,9.635,0,0,0-.659,3.533,9.122,9.122,0,0,0,2.643,6.665,8.97,8.97,0,0,0,6.629,2.669,8.056,8.056,0,0,0,3.224-.655,8.213,8.213,0,0,0,2.194-1.41v.56c.012.436.232,1.121,1.5,1.121h.741c1.3,0,1.5-.729,1.5-1.161V843.05l-.005-.005v-10.22c0-.009.006-.019.006-.029v-2.581a.506.506,0,0,0-.006-.088Zm-3.709,7.953a5.435,5.435,0,0,1-1.667,3.961,5.173,5.173,0,0,1-3.82,1.691,5.368,5.368,0,0,1-4.036-1.686,5.686,5.686,0,0,1-1.647-4.189,5.6,5.6,0,0,1,5.612-5.649,5.194,5.194,0,0,1,3.909,1.719,5.844,5.844,0,0,1,1.649,4.153" fill="#fff"/>
        <path id="Trazado_193" data-name="Trazado 193" d="M360.945,830.1l0,0c-.035-.414-.282-.978-1.336-1.031a.151.151,0,0,0-.038-.009h-.927c-1.244.026-1.44.729-1.44,1.157v.493a8.178,8.178,0,0,0-2.246-1.439,8.562,8.562,0,0,0-3.359-.645,9.313,9.313,0,0,0-3.611.668,8.8,8.8,0,0,0-2.927,2.069,9.052,9.052,0,0,0-1.886,2.949,9.653,9.653,0,0,0-.655,3.533,9.122,9.122,0,0,0,2.639,6.665,8.981,8.981,0,0,0,6.629,2.669,8.089,8.089,0,0,0,3.228-.655,8.283,8.283,0,0,0,2.192-1.41v.545l0,.015c.011.436.228,1.121,1.5,1.121h.742c1.3,0,1.5-.729,1.5-1.161V832.825c0-.009.005-.019.005-.029v-2.581c0-.03,0-.06-.005-.088Zm-3.714,7.953a5.42,5.42,0,0,1-1.667,3.961,5.169,5.169,0,0,1-3.819,1.691,5.373,5.373,0,0,1-4.037-1.686,5.69,5.69,0,0,1-1.647-4.189,5.61,5.61,0,0,1,5.614-5.649,5.2,5.2,0,0,1,3.908,1.719,5.839,5.839,0,0,1,1.648,4.153" fill="#fff"/>
        <path id="Trazado_194" data-name="Trazado 194" d="M552.116,830.1l0,0c-.032-.414-.283-.978-1.332-1.031a.236.236,0,0,0-.041-.009h-.926c-1.245.026-1.439.729-1.439,1.157v.493a8.177,8.177,0,0,0-2.249-1.439,8.558,8.558,0,0,0-3.356-.645,9.3,9.3,0,0,0-3.612.668,8.8,8.8,0,0,0-2.926,2.069,9,9,0,0,0-1.885,2.949,9.572,9.572,0,0,0-.658,3.533,9.112,9.112,0,0,0,2.641,6.665,8.978,8.978,0,0,0,6.627,2.669,8.07,8.07,0,0,0,3.227-.655,8.224,8.224,0,0,0,2.193-1.41v.545l0,.015c.012.436.23,1.121,1.5,1.121h.738c1.3,0,1.5-.729,1.5-1.161V832.825c0-.009,0-.019,0-.029v-2.581c0-.03,0-.06,0-.088Zm-3.71,7.953a5.428,5.428,0,0,1-1.668,3.961,5.174,5.174,0,0,1-3.822,1.691,5.379,5.379,0,0,1-4.037-1.686,5.7,5.7,0,0,1-1.646-4.189,5.606,5.606,0,0,1,5.615-5.649,5.181,5.181,0,0,1,3.9,1.719,5.831,5.831,0,0,1,1.653,4.153" fill="#fff"/>
        <path id="Trazado_195" data-name="Trazado 195" d="M593.519,830.1v0c-.034-.414-.281-.978-1.332-1.031a.237.237,0,0,0-.039-.009h-.929c-1.247.026-1.441.729-1.441,1.157v.493a8.124,8.124,0,0,0-2.247-1.439,8.548,8.548,0,0,0-3.356-.645,9.313,9.313,0,0,0-3.613.668,8.836,8.836,0,0,0-2.926,2.069,9.028,9.028,0,0,0-1.883,2.949,9.6,9.6,0,0,0-.66,3.533,9.123,9.123,0,0,0,2.64,6.665,8.981,8.981,0,0,0,6.629,2.669,8.082,8.082,0,0,0,3.228-.655,8.236,8.236,0,0,0,2.192-1.41v.545c0,.007,0,.01,0,.015.012.436.229,1.121,1.5,1.121h.738c1.3,0,1.5-.729,1.5-1.161V843.05l0-.005v-10.22c0-.009.006-.019.006-.029v-2.581a.625.625,0,0,0-.006-.088Zm-3.708,7.953a5.439,5.439,0,0,1-1.667,3.961,5.181,5.181,0,0,1-3.823,1.691,5.377,5.377,0,0,1-4.036-1.686,5.7,5.7,0,0,1-1.646-4.189,5.6,5.6,0,0,1,5.613-5.649,5.188,5.188,0,0,1,3.907,1.719,5.834,5.834,0,0,1,1.652,4.153" fill="#fff"/>
        <path id="Trazado_196" data-name="Trazado 196" d="M529.563,829.043h-.153l-.015,0h-.4l-.008,0h-.157c-1.293,0-1.523.687-1.539,1.136v.021c0,.013,0,.022,0,.034v.536a8.568,8.568,0,0,0-5.852-2.177,9.576,9.576,0,0,0-3.735.694,9.1,9.1,0,0,0-3.03,2.139,9.322,9.322,0,0,0-1.949,3.053,9.936,9.936,0,0,0-.681,3.658,9.445,9.445,0,0,0,2.732,6.9,9.294,9.294,0,0,0,6.858,2.756,8.356,8.356,0,0,0,3.341-.677,8.582,8.582,0,0,0,2.269-1.455,5.333,5.333,0,0,1-1.531,3.538,5.651,5.651,0,0,1-4.111,1.525,5.417,5.417,0,0,1-2.6-.613,4.725,4.725,0,0,1-1.821-1.777.326.326,0,0,0-.272-.157h-3.4a.315.315,0,0,0-.257.135.31.31,0,0,0-.039.286,8.188,8.188,0,0,0,3.2,4.226,9.5,9.5,0,0,0,5.374,1.494,8.849,8.849,0,0,0,6.837-2.718,10.669,10.669,0,0,0,2.481-7.453V830.23c0-.444-.2-1.187-1.544-1.187m-2.654,9.259a5.436,5.436,0,0,1-1.667,3.959,5.179,5.179,0,0,1-3.826,1.692,5.392,5.392,0,0,1-4.035-1.683,5.717,5.717,0,0,1-1.646-4.189,5.608,5.608,0,0,1,5.615-5.653,5.18,5.18,0,0,1,3.906,1.725,5.824,5.824,0,0,1,1.653,4.149" fill="#fff"/>
        <path id="Trazado_197" data-name="Trazado 197" d="M565.208,828.191a6.96,6.96,0,0,0-2.953.6,6.283,6.283,0,0,0-1.26.783v-.47a.63.63,0,0,0-.629-.63h-1.628l-.013,0h-.149c-1.659,0-1.827,1.078-1.834,1.456,0,.007-.005.014-.005.022v15.64c0,.349.136,1.49,1.839,1.49h1.911a.631.631,0,0,0,.633-.631v-7.884a9.144,9.144,0,0,1,.946-4.829,3.815,3.815,0,0,1,5.524-.2,6.126,6.126,0,0,1,.892,3.707v9.208a.633.633,0,0,0,.634.631h2.008c.011,0,.019,0,.034,0,1.562-.047,1.721-1.1,1.73-1.462v-9.053A8.882,8.882,0,0,0,570.9,830.4a7.339,7.339,0,0,0-5.689-2.206" fill="#fff"/>
        <path id="Trazado_198" data-name="Trazado 198" d="M504.2,829.048l-.007,0h-2.105a.308.308,0,0,0-.291.2l-5.138,13.069-4.738-13.06a.312.312,0,0,0-.292-.212h-2c-.538,0-1.135.009-1.444.4a1.043,1.043,0,0,0-.108.942l.006.02v.005L494.4,847.43l-1.058,2.689c0,.008-.014.013-.015.02l-1.049,2.837a1.023,1.023,0,0,0,.117.909,1.451,1.451,0,0,0,1.167.4s.009.005.014.005h2.108a.313.313,0,0,0,.291-.2l8.489-20.88a.275.275,0,0,0,.021-.067l0-.014,1.03-2.771a1.016,1.016,0,0,0-.124-.911,1.477,1.477,0,0,0-1.192-.4" fill="#fff"/>
      </g>
    </g>
  </g>
</svg>
