<svg xmlns="http://www.w3.org/2000/svg" width="647.436" height="154.218" viewBox="0 0 647.436 154.218">
  <g id="Grupo_99" data-name="Grupo 99" transform="translate(152.005 503.91)">
    <g id="Grupo_98" data-name="Grupo 98" transform="translate(-221 -58.547)">
      <path id="Trazado_199" data-name="Trazado 199" d="M88.7-359.43v-66.192a3.127,3.127,0,0,1,3.255-3.254H104.91s16.413.782,16.413,14.4c0,0,.333,12.73-11.613,15.52-.9.234-2.009.446-2.009.446-3.907,0-3.683,2.793-3.683,2.793v11.389s-.224,2.789,3.686,2.789a32.327,32.327,0,0,0,24.447-10.606s13.062-11.165,7.258-31.486c0,0-5.916-21.63-29.364-21.63H74.085c-2.812,0-5.09.813-5.09,3.623v86.721a5.088,5.088,0,0,0,5.09,5.087h9.268a5.541,5.541,0,0,0,5.349-5.348v-4.253" fill="#003da6"/>
      <path id="Trazado_200" data-name="Trazado 200" d="M325.622-349.83h13.9v-90.326a5.08,5.08,0,0,0-5.092-5.069h-9.266a5.537,5.537,0,0,0-5.353,5.328v58.255l-47.381-60.983a9.6,9.6,0,0,0-6.251-2.711l-8.46-.027h-6.98V-354.9a5.077,5.077,0,0,0,5.089,5.066h9.27a5.535,5.535,0,0,0,5.351-5.327V-413.9l46.235,60.068s3.016,4.005,4.8,4.005Z" fill="#003da6"/>
      <path id="Trazado_201" data-name="Trazado 201" d="M403.02-359.43v-77.414l4.782,7.358a4.616,4.616,0,0,0,2.976,1.936l12.5.012h5.419c2.807,0,4.185-1.166,4.185-3.976l.058-4.119v-5.415c0-2.811-1.166-4.187-3.975-4.187H357.45c-2.813,0-3.978,1.376-3.978,4.187v5.415l.061,4.119c0,2.81,1.376,3.976,4.187,3.976h25.668v41.013l-.074,11.909v19.7a5.088,5.088,0,0,0,5.088,5.087h9.268a5.543,5.543,0,0,0,5.35-5.348v-4.253" fill="#003da6"/>
      <path id="Trazado_202" data-name="Trazado 202" d="M154.767-435.78v-4.187a5.464,5.464,0,0,1,5.285-5.258H169.2a5.014,5.014,0,0,1,5.024,5v19.369l-.06,10.5v21.737a21.56,21.56,0,0,0,21.6,21.519,21.56,21.56,0,0,0,21.6-21.519v-51.349a5.461,5.461,0,0,1,5.281-5.258h9.149a5.011,5.011,0,0,1,5.02,5v19.369l-.056,21.073v11.343c0,21.364-18.354,38.684-40.994,38.684s-40.995-17.32-40.995-38.684V-435.78" fill="#003da6"/>
      <path id="Trazado_203" data-name="Trazado 203" d="M555.446-424.915v43.971H535.81V-445.2h42.528c26.936,0,48.965,22.165,48.965,47.3s-20.841,47.983-48.625,47.983l-33.2.108h-4.245c-2.807,0-5.423-2.914-5.423-6.134V-362.1c0-2.821,3-5.369,6.193-5.369h4.18l30.722-.112a30.569,30.569,0,0,0,30.6-30.191c0-15.814-13.858-29.762-30.808-29.762H555.446Z" fill="#003da6"/>
      <path id="Trazado_204" data-name="Trazado 204" d="M474.111-445.256h-6.334a3.52,3.52,0,0,0-3.481,2.544l-.756,2.238-30.586,87.961s-1.056,2.542.315,2.752h17.2a4.178,4.178,0,0,0,2.953-2.857l3.8-10.693a9.022,9.022,0,0,1,3.183-3.911l14.738-14.114H463.092l12.955-38.83,1.221-3.694,2.577,7.655L491.3-381.336l5.87,18.025,3.8,10.693a4.185,4.185,0,0,0,2.956,2.857h17.2c1.377-.21.32-2.752.32-2.752l-30.589-87.961-.752-2.238a3.521,3.521,0,0,0-3.483-2.544H474.111Z" fill="#003da6"/>
      <path id="Trazado_205" data-name="Trazado 205" d="M668.715-445.256h-6.332a3.517,3.517,0,0,0-3.481,2.544l-.754,2.238-30.586,87.961s-1.06,2.542.315,2.752h17.2a4.186,4.186,0,0,0,2.958-2.857l3.8-10.693a9.008,9.008,0,0,1,3.19-3.911l14.736-14.114H657.7l12.953-38.83,1.22-3.694,2.574,7.655,11.458,34.869,5.866,18.025,3.8,10.693a4.178,4.178,0,0,0,2.953,2.857h17.2c1.371-.21.315-2.752.315-2.752l-30.582-87.961-.758-2.238a3.522,3.522,0,0,0-3.485-2.544h-12.5Z" fill="#003da6"/>
      <path id="Trazado_206" data-name="Trazado 206" d="M409.791-311.946h-6.04a.462.462,0,0,0-.42.268,6.56,6.56,0,0,1-6.249,3.964c-3.971,0-6.848-3.012-6.848-7.159a7.625,7.625,0,0,1,1.888-5.17,6.528,6.528,0,0,1,4.777-1.995l.183.005a6.485,6.485,0,0,1,6.244,4.173.447.447,0,0,0,.425.286h6.04a.464.464,0,0,0,.356-.171.462.462,0,0,0,.084-.387,13.416,13.416,0,0,0-13.375-10.308,13.384,13.384,0,0,0-13.482,13.567,13.515,13.515,0,0,0,13.708,13.617,13.345,13.345,0,0,0,13.149-10.127.443.443,0,0,0-.084-.388.448.448,0,0,0-.356-.175" fill="#003da6"/>
      <path id="Trazado_207" data-name="Trazado 207" d="M481.036-316.044c0-5.047-.424-7.284-2.832-9.781a9.645,9.645,0,0,0-6.9-2.614,9.589,9.589,0,0,0-6.62,2.553,9.783,9.783,0,0,0-1.468,1.776,10.118,10.118,0,0,0-1.177-1.663,8.387,8.387,0,0,0-6.42-2.666,8.873,8.873,0,0,0-6.747,2.893v-.427c0-.012,0-.027,0-.041v-.086c0-.011,0-.016,0-.027-.048-.641-.424-1.555-2.211-1.555h-.225c-.007,0-.011.006-.018.006h-1.54a.074.074,0,0,1-.018-.006h-.229c-.019,0-.039.006-.059.006h-.054c-.014,0-.018.005-.023.005-1.8.056-2.084,1.079-2.084,1.7v3.836a.33.33,0,0,0,.014.054V-307.6c0,.007,0,.013,0,.022v3.836c0,.635.282,1.709,2.213,1.709h.052l.013,0H447c.005,0,.009-.006.012-.006,1.843,0,2.177-.98,2.2-1.623,0-.018.014-.03.014-.048v-12.163a8.367,8.367,0,0,1,.885-4.054,4.1,4.1,0,0,1,3.825-2.071,3.919,3.919,0,0,1,3.658,2.049,8.59,8.59,0,0,1,.724,3.9v12.2c0,.009,0,.01,0,.021v.085c0,.631.288,1.684,2.167,1.7a.212.212,0,0,0,.045.009h2.33c.007,0,.01,0,.018,0h.036c1.932,0,2.22-1.074,2.22-1.709v-3.836c0-.011-.009-.022-.009-.033v-8.438a7.519,7.519,0,0,1,.8-3.923,4.222,4.222,0,0,1,3.884-2.022,3.535,3.535,0,0,1,3.495,1.823,8.01,8.01,0,0,1,.915,4.347v12.082c0,.635.294,1.709,2.221,1.709h.073l.011,0h2.334c.007,0,.014-.009.03-.009,1.861-.026,2.147-1.076,2.147-1.7v-3.836l0-.011Z" fill="#003da6"/>
      <path id="Trazado_208" data-name="Trazado 208" d="M520.292-336.282h-5.906a.451.451,0,0,0-.451.456v33.344a.452.452,0,0,0,.451.458h5.906a.457.457,0,0,0,.455-.458v-33.344a.456.456,0,0,0-.455-.456" fill="#003da6"/>
      <path id="Trazado_209" data-name="Trazado 209" d="M437.464-326.1c0-.011-.009-.018-.009-.029-.049-.63-.421-1.513-2.121-1.545l-.006,0h-.021c-.018,0-.034-.006-.06-.006h-.219c-.007,0-.018.006-.025.006h-1.9c-.012,0-.02-.006-.027-.006h-.221c-.022,0-.04.006-.061.006h-.069a.1.1,0,0,0-.025.007c-1.776.059-2.064,1.08-2.064,1.7v3.836a.3.3,0,0,0,.011.052v8.519c0,3.883-1.759,5.85-5.223,5.85l-.094.005c-3.316,0-4.856-1.92-4.856-6.038V-325.98a.1.1,0,0,0-.007-.034c-.014-.631-.326-1.626-2.127-1.66l0,0h-.024c-.023,0-.039-.006-.061-.006h-.219c-.009,0-.016.006-.022.006H416.13c-.005,0-.012-.006-.02-.006h-.225c-1.914,0-2.209,1.057-2.214,1.7,0,.015-.009.02-.009.034v13.693c0,9.522,6.324,10.981,10.093,11h.144c3.673,0,5.837-1.441,7.109-3v.58c0,.012.013.021.013.034.021.644.369,1.615,2.208,1.615h.219c.005,0,.005.006.014.006h1.785a.08.08,0,0,0,.033-.011c1.81-.018,2.146-.979,2.17-1.618,0-.018.014-.032.014-.048v-22.4Z" fill="#003da6"/>
      <path id="Trazado_210" data-name="Trazado 210" d="M508.981-326.1c0-.011-.007-.018-.011-.029-.047-.63-.417-1.513-2.116-1.545l-.009,0h-.018c-.025,0-.037-.006-.061-.006h-.225c-.007,0-.014.006-.021.006h-1.9c-.009,0-.015-.006-.022-.006h-.223c-.023,0-.04.006-.063.006h-.067c-.01,0-.014.005-.023.007-1.781.059-2.064,1.08-2.064,1.7v3.836c0,.019.007.034.007.052v8.519c0,3.883-1.757,5.85-5.216,5.85l-.1.005c-3.316,0-4.857-1.92-4.857-6.038V-325.98c0-.016-.007-.027-.007-.045-.012-.629-.329-1.615-2.128-1.649l-.008,0h-.021c-.02,0-.038-.006-.058-.006h-.221c-.007,0-.014.006-.02.006h-1.878c-.013,0-.016-.006-.022-.006H487.4c-1.915,0-2.214,1.057-2.217,1.7,0,.015-.007.02-.007.034v13.693c0,9.522,6.322,10.981,10.092,11h.142c3.672,0,5.846-1.441,7.112-3v.58c0,.008.011.019.011.03.025.641.362,1.619,2.213,1.619h.214c.006,0,.008.006.011.006h1.792a.147.147,0,0,0,.034-.011c1.8-.018,2.143-.979,2.163-1.618,0-.018.018-.032.018-.048v-22.4Z" fill="#003da6"/>
      <path id="Trazado_211" data-name="Trazado 211" d="M551.149-326.164v-.006c-.045-.6-.4-1.414-1.929-1.491a.311.311,0,0,0-.059-.013H547.82c-1.8.038-2.083,1.055-2.083,1.674v.712a11.744,11.744,0,0,0-3.25-2.08,12.355,12.355,0,0,0-4.853-.934,13.466,13.466,0,0,0-5.225.967,12.776,12.776,0,0,0-4.235,2.992,13.112,13.112,0,0,0-2.722,4.266,13.9,13.9,0,0,0-.954,5.11,13.18,13.18,0,0,0,3.824,9.638,12.963,12.963,0,0,0,9.586,3.862,11.647,11.647,0,0,0,4.664-.949,11.887,11.887,0,0,0,3.172-2.038v.788l0,.021c.018.63.336,1.622,2.171,1.622h1.071c1.884,0,2.168-1.055,2.168-1.679v-3.735c0-.006-.007-.006-.007-.008v-14.781c0-.012.009-.027.009-.041V-326a.762.762,0,0,0-.009-.128Zm-5.364,11.5a7.859,7.859,0,0,1-2.411,5.728,7.48,7.48,0,0,1-5.525,2.446,7.766,7.766,0,0,1-5.837-2.438,8.223,8.223,0,0,1-2.382-6.058,7.805,7.805,0,0,1,2.375-5.8,7.776,7.776,0,0,1,5.741-2.373,7.507,7.507,0,0,1,5.653,2.487,8.449,8.449,0,0,1,2.386,6.006" fill="#003da6"/>
      <path id="Trazado_212" data-name="Trazado 212" d="M379.616-326.164l0-.006c-.051-.6-.409-1.414-1.933-1.491a.233.233,0,0,0-.055-.013h-1.341c-1.8.038-2.082,1.055-2.082,1.674v.712a11.828,11.828,0,0,0-3.249-2.08,12.366,12.366,0,0,0-4.858-.934,13.458,13.458,0,0,0-5.222.967,12.728,12.728,0,0,0-4.233,2.992,13.079,13.079,0,0,0-2.728,4.266,13.941,13.941,0,0,0-.948,5.11,13.187,13.187,0,0,0,3.818,9.638,12.98,12.98,0,0,0,9.586,3.862,11.685,11.685,0,0,0,4.669-.949,12.009,12.009,0,0,0,3.171-2.038v.788c0,.009,0,.014,0,.021.017.63.331,1.622,2.167,1.622h1.072c1.884,0,2.168-1.055,2.168-1.679v-3.735l0-.008v-14.781c0-.012.007-.027.007-.041V-326c0-.044,0-.087-.007-.128Zm-5.37,11.5a7.841,7.841,0,0,1-2.412,5.728,7.472,7.472,0,0,1-5.523,2.446,7.774,7.774,0,0,1-5.839-2.438,8.231,8.231,0,0,1-2.382-6.058,7.8,7.8,0,0,1,2.379-5.8,7.781,7.781,0,0,1,5.741-2.373,7.508,7.508,0,0,1,5.651,2.487,8.44,8.44,0,0,1,2.385,6.006" fill="#003da6"/>
      <path id="Trazado_213" data-name="Trazado 213" d="M656.107-326.164l-.005-.006c-.047-.6-.411-1.414-1.927-1.491a.36.36,0,0,0-.06-.013h-1.339c-1.8.038-2.081,1.055-2.081,1.674v.712a11.8,11.8,0,0,0-3.253-2.08,12.359,12.359,0,0,0-4.853-.934,13.455,13.455,0,0,0-5.225.967,12.714,12.714,0,0,0-4.232,2.992,13.025,13.025,0,0,0-2.726,4.266,13.841,13.841,0,0,0-.952,5.11,13.173,13.173,0,0,0,3.82,9.638,12.983,12.983,0,0,0,9.585,3.862,11.661,11.661,0,0,0,4.667-.949,11.935,11.935,0,0,0,3.172-2.038v.788l0,.021c.018.63.333,1.622,2.174,1.622h1.067c1.887,0,2.168-1.055,2.168-1.679v-3.735l0-.008v-14.781c0-.012.005-.027.005-.041V-326c0-.044,0-.087-.005-.128Zm-5.365,11.5a7.85,7.85,0,0,1-2.413,5.728,7.481,7.481,0,0,1-5.528,2.446,7.781,7.781,0,0,1-5.838-2.438,8.242,8.242,0,0,1-2.381-6.058,7.82,7.82,0,0,1,2.375-5.8,7.788,7.788,0,0,1,5.745-2.373,7.491,7.491,0,0,1,5.648,2.487,8.429,8.429,0,0,1,2.392,6.006" fill="#003da6"/>
      <path id="Trazado_214" data-name="Trazado 214" d="M715.989-326.164l0-.006c-.049-.6-.407-1.414-1.927-1.491a.368.368,0,0,0-.056-.013H712.66c-1.8.038-2.084,1.055-2.084,1.674v.712a11.754,11.754,0,0,0-3.249-2.08,12.355,12.355,0,0,0-4.855-.934,13.462,13.462,0,0,0-5.225.967,12.741,12.741,0,0,0-4.231,2.992,13.055,13.055,0,0,0-2.725,4.266,13.882,13.882,0,0,0-.953,5.11,13.187,13.187,0,0,0,3.818,9.638,12.984,12.984,0,0,0,9.586,3.862,11.671,11.671,0,0,0,4.669-.949,11.929,11.929,0,0,0,3.171-2.038v.788c0,.009.005.014.005.021.018.63.331,1.622,2.172,1.622h1.067c1.885,0,2.168-1.055,2.168-1.679v-3.735c0-.006-.005-.006-.005-.008v-14.781c0-.012.009-.027.009-.041V-326a1.055,1.055,0,0,0-.009-.128Zm-5.364,11.5a7.863,7.863,0,0,1-2.411,5.728,7.491,7.491,0,0,1-5.529,2.446,7.778,7.778,0,0,1-5.837-2.438,8.237,8.237,0,0,1-2.38-6.058,7.8,7.8,0,0,1,2.373-5.8,7.791,7.791,0,0,1,5.745-2.373,7.5,7.5,0,0,1,5.65,2.487,8.431,8.431,0,0,1,2.389,6.006" fill="#003da6"/>
      <path id="Trazado_215" data-name="Trazado 215" d="M623.488-327.7h-.221l-.021,0h-.58l-.012,0h-.227c-1.87,0-2.2.993-2.226,1.643v.031c0,.018,0,.03,0,.048v.776a12.8,12.8,0,0,0-3.451-2.181,12.893,12.893,0,0,0-5.013-.968,13.827,13.827,0,0,0-5.4,1,13.159,13.159,0,0,0-4.382,3.093,13.5,13.5,0,0,0-2.819,4.415,14.382,14.382,0,0,0-.984,5.292,13.657,13.657,0,0,0,3.951,9.975,13.447,13.447,0,0,0,9.918,3.985,12.108,12.108,0,0,0,4.832-.978,12.421,12.421,0,0,0,3.282-2.106,7.708,7.708,0,0,1-2.215,5.118,8.17,8.17,0,0,1-5.944,2.205,7.823,7.823,0,0,1-3.754-.887,6.833,6.833,0,0,1-2.634-2.569.47.47,0,0,0-.394-.227h-4.914a.46.46,0,0,0-.372.2.45.45,0,0,0-.056.413,11.848,11.848,0,0,0,4.626,6.113,13.733,13.733,0,0,0,7.773,2.16c4.172,0,7.5-1.322,9.889-3.931s3.587-6.227,3.587-10.779v-20.123c0-.643-.295-1.717-2.233-1.717m-3.837,13.39a7.871,7.871,0,0,1-2.411,5.727,7.49,7.49,0,0,1-5.535,2.447,7.8,7.8,0,0,1-5.835-2.434,8.27,8.27,0,0,1-2.38-6.058,7.816,7.816,0,0,1,2.375-5.8,7.784,7.784,0,0,1,5.745-2.375,7.488,7.488,0,0,1,5.649,2.494,8.422,8.422,0,0,1,2.392,6" fill="#003da6"/>
      <path id="Trazado_216" data-name="Trazado 216" d="M675.042-328.927a10.055,10.055,0,0,0-4.271.871,9.086,9.086,0,0,0-1.823,1.131v-.68a.91.91,0,0,0-.909-.91h-2.355l-.018,0h-.216c-2.4,0-2.643,1.56-2.652,2.107,0,.009-.007.02-.007.031v22.62c0,.506.2,2.156,2.659,2.156h2.764a.914.914,0,0,0,.916-.913v-11.4c0-3.28.462-5.63,1.367-6.983a4.551,4.551,0,0,1,4.133-1.864,4.51,4.51,0,0,1,3.858,1.57c.86,1.112,1.29,2.921,1.29,5.362v13.318a.916.916,0,0,0,.916.913h2.9c.016,0,.028-.008.05-.008,2.258-.068,2.488-1.588,2.5-2.114V-316.82c0-3.816-.972-6.819-2.879-8.917-1.923-2.112-4.694-3.19-8.228-3.19" fill="#003da6"/>
      <path id="Trazado_217" data-name="Trazado 217" d="M586.811-327.688s-.006-.006-.011-.006h-3.045a.446.446,0,0,0-.42.293L575.9-308.5l-6.852-18.889a.452.452,0,0,0-.423-.306h-2.9c-.778,0-1.641.013-2.087.583a1.506,1.506,0,0,0-.157,1.362l.009.029v.007l9.142,24.61-1.531,3.89c0,.011-.02.018-.022.029l-1.516,4.1a1.476,1.476,0,0,0,.169,1.315,2.1,2.1,0,0,0,1.687.576c.006,0,.013.007.02.007h3.05a.455.455,0,0,0,.421-.286l12.276-30.2a.406.406,0,0,0,.031-.1l0-.02,1.49-4.009a1.468,1.468,0,0,0-.18-1.317,2.134,2.134,0,0,0-1.723-.577" fill="#003da6"/>
    </g>
  </g>
</svg>
